<svg width="224" height="227" viewBox="0 0 224 227" fill="none" xmlns="http://www.w3.org/2000/svg">
<path fill-rule="evenodd" clip-rule="evenodd" d="M111.274 202.006C113.693 202.012 116.124 201.92 118.563 201.728C124.364 201.27 130.206 200.243 136.02 198.608C141.835 196.973 147.356 194.806 152.546 192.173C154.728 191.067 156.851 189.879 158.912 188.613C160.998 187.333 163.021 185.973 164.978 184.54C161.047 178.122 152.777 175.7 145.948 179.164C141.601 181.369 136.967 183.189 132.072 184.565C127.178 185.941 122.274 186.802 117.415 187.186C109.781 187.788 103.986 194.164 103.975 201.691C106.392 201.894 108.827 202 111.274 202.006ZM38.5454 164.978C44.9635 161.047 47.3853 152.777 43.9216 145.948C41.717 141.601 39.8966 136.967 38.5204 132.073C37.1443 127.178 36.2832 122.274 35.8997 117.415C35.2972 109.781 28.9212 103.986 21.3948 103.975C21.1916 106.392 21.0854 108.827 21.0794 111.274C21.0735 113.693 21.1653 116.125 21.3578 118.563C21.8156 124.364 22.843 130.206 24.4777 136.021C26.1125 141.835 28.2798 147.357 30.9121 152.546C32.0184 154.728 33.2069 156.851 34.4725 158.912C35.7529 160.998 37.1123 163.021 38.5454 164.978ZM22.1441 97.7096C29.4647 99.4716 37.0281 95.3355 39.4077 88.0545C42.5024 78.5853 47.4368 69.7913 53.9061 62.2155C58.8804 56.3904 58.4693 47.7798 53.1506 42.4499C51.2857 44.0279 49.4909 45.6769 47.7692 47.3916C46.0426 49.1112 44.3896 50.8967 42.8132 52.7428C35.1057 61.7686 29.2293 72.2413 25.5422 83.523C24.7881 85.8305 24.1255 88.1718 23.5576 90.5415C22.9913 92.9044 22.5191 95.2956 22.1441 97.7096ZM58.1076 38.5455C62.0389 44.9636 70.308 47.3854 77.1373 43.9217C81.4841 41.717 86.1181 39.8967 91.0129 38.5205C95.9077 37.1444 100.811 36.2833 105.67 35.8998C113.304 35.2973 119.1 28.9213 119.11 21.3949C116.693 21.1916 114.258 21.0855 111.811 21.0795C109.392 21.0736 106.961 21.1654 104.523 21.3579C98.7214 21.8157 92.8796 22.843 87.0649 24.4778C81.2502 26.1125 75.729 28.2799 70.539 30.9121C68.3577 32.0185 66.2349 33.2069 64.1734 34.4725C62.0877 35.753 60.0648 37.1124 58.1076 38.5455ZM125.376 22.1442C123.614 29.4648 127.75 37.0281 135.031 39.4077C144.5 42.5025 153.294 47.4369 160.87 53.9062C166.695 58.8805 175.306 58.4693 180.636 53.1507C179.058 51.2858 177.409 49.491 175.694 47.7693C173.974 46.0427 172.189 44.3897 170.343 42.8132C161.317 35.1057 150.844 29.2294 139.562 25.5423C137.255 24.7882 134.914 24.1256 132.544 23.5577C130.181 22.9914 127.79 22.5192 125.376 22.1442ZM184.54 58.1077C178.122 62.039 175.7 70.3081 179.164 77.1373C181.368 81.4842 183.189 86.1182 184.565 91.013C185.941 95.9078 186.802 100.812 187.186 105.67C187.788 113.304 194.164 119.1 201.691 119.111C201.894 116.693 202 114.258 202.006 111.811C202.012 109.392 201.92 106.961 201.728 104.523C201.27 98.7214 200.242 92.8796 198.608 87.065C196.973 81.2503 194.806 75.729 192.173 70.5391C191.067 68.3578 189.879 66.2349 188.613 64.1735C187.332 62.0878 185.973 60.0649 184.54 58.1077ZM200.941 125.376C193.621 123.614 186.057 127.75 183.678 135.031C180.583 144.5 175.649 153.294 169.179 160.87C164.205 166.695 164.616 175.306 169.935 180.636C171.8 179.058 173.594 177.409 175.316 175.694C177.043 173.974 178.696 172.189 180.272 170.343C187.98 161.317 193.856 150.844 197.543 139.563C198.297 137.255 198.96 134.914 199.528 132.544C200.094 130.181 200.566 127.79 200.941 125.376Z" fill="url(#paint0_linear_205_31049)"/>
<path fill-rule="evenodd" clip-rule="evenodd" d="M119.656 113.43L24.0615 179.342L95.173 226.935L119.656 113.43Z" fill="url(#paint1_linear_205_31049)"/>
<defs>
<linearGradient id="paint0_linear_205_31049" x1="88.2912" y1="24.133" x2="137.247" y2="198.263" gradientUnits="userSpaceOnUse">
<stop stop-color="#1F90CC"/>
<stop offset="1" stop-color="#9013FE"/>
</linearGradient>
<linearGradient id="paint1_linear_205_31049" x1="54.5038" y1="133.856" x2="125.615" y2="181.449" gradientUnits="userSpaceOnUse">
<stop stop-color="#1F90CC"/>
<stop offset="1" stop-color="#9013FE"/>
</linearGradient>
</defs>
</svg>
