<svg width="596" height="110" viewBox="0 0 596 110" fill="none" xmlns="http://www.w3.org/2000/svg">
<g style="mix-blend-mode:multiply" clip-path="url(#clip0_182_1641)">
<path d="M565.822 52.1314H587.013C586.514 49.1121 585.392 46.7992 583.647 45.1926C581.902 43.586 579.769 42.7827 577.248 42.7827C574.285 42.7827 571.805 43.6137 569.811 45.2757C567.817 46.9377 566.487 49.2229 565.822 52.1314ZM577.996 79.5127C570.822 79.5127 565.157 77.4629 561.002 73.3633C556.875 69.2637 554.812 63.9038 554.812 57.2835C554.812 54.292 555.31 51.4527 556.307 48.7658C557.305 46.079 558.703 43.6968 560.504 41.6193C562.332 39.5418 564.631 37.8937 567.401 36.6749C570.199 35.4561 573.287 34.8467 576.667 34.8467C580.046 34.8467 582.996 35.4284 585.517 36.5918C588.037 37.7552 590.032 39.3895 591.5 41.4946C592.968 43.5721 594.048 45.9128 594.741 48.5165C595.461 51.1203 595.821 54.0011 595.821 57.1589C595.821 57.9622 595.752 58.5716 595.613 58.9871H565.698C565.864 63.1421 567.124 66.2167 569.479 68.2111C571.861 70.2055 575.019 71.2027 578.952 71.2027C583.55 71.2027 588.037 69.6792 592.414 66.6322L595.198 74.1112C592.511 75.9671 589.796 77.3382 587.054 78.2246C584.34 79.0833 581.32 79.5127 577.996 79.5127Z" fill="black"/>
<path d="M523.691 71.2022C525.575 71.2022 527.223 70.8283 528.636 70.0804C530.048 69.3048 531.156 68.2522 531.96 66.9226C532.791 65.5653 533.4 64.0834 533.788 62.4768C534.203 60.8702 534.411 59.1389 534.411 57.2831C534.411 53.1281 533.511 49.7487 531.71 47.1449C529.91 44.5134 527.209 43.1977 523.608 43.1977C521.198 43.1977 519.162 43.8486 517.5 45.1505C515.866 46.4524 514.689 48.1144 513.969 50.1365C513.276 52.1586 512.93 54.4854 512.93 57.1169C512.93 59.0281 513.124 60.8009 513.512 62.4352C513.927 64.0695 514.536 65.5653 515.34 66.9226C516.171 68.2522 517.293 69.3048 518.705 70.0804C520.146 70.8283 521.808 71.2022 523.691 71.2022ZM521.572 79.5122C516.06 79.5122 511.434 77.4901 507.695 73.4459C503.983 69.4017 502.127 64.0695 502.127 57.4493C502.127 54.43 502.556 51.5769 503.415 48.89C504.274 46.2031 505.506 43.8071 507.113 41.7019C508.747 39.5967 510.88 37.9347 513.512 36.7159C516.143 35.4694 519.093 34.8462 522.362 34.8462C525.298 34.8462 527.777 35.4556 529.799 36.6744C531.849 37.8655 533.275 39.112 534.079 40.4139V18.0186H544.3V67.1719C544.3 67.3381 544.425 71.133 544.674 78.5565H534.12L534.037 73.1135C533.788 73.7506 533.372 74.4015 532.791 75.0663C532.209 75.7311 531.433 76.4236 530.464 77.1438C529.494 77.8363 528.234 78.4042 526.683 78.8474C525.132 79.2906 523.428 79.5122 521.572 79.5122Z" fill="black"/>
<path d="M481.768 27.1184V18.0605H491.74V27.1184H481.768ZM481.809 78.557V35.9269H491.74V78.557H481.809Z" fill="black"/>
<path d="M448.362 79.5124C443.21 79.5124 439.193 78.0443 436.312 75.1082C433.432 72.1443 431.991 68.0863 431.991 62.9341V35.9268H442.212V62.7679C442.212 65.5933 442.946 67.7123 444.415 69.125C445.883 70.51 447.905 71.2025 450.481 71.2025C453.556 71.2025 455.827 70.4407 457.295 68.9172C458.791 67.3661 459.539 64.8869 459.539 61.4798V35.9268H469.843V67.0891L470.342 78.5568H459.705L459.539 72.2412C459.4 72.8506 459.082 73.5293 458.583 74.2772C458.112 74.9974 457.447 75.773 456.589 76.6039C455.758 77.4349 454.608 78.1274 453.14 78.6814C451.7 79.2354 450.107 79.5124 448.362 79.5124Z" fill="black"/>
<path d="M398.044 79.5124C388.1 79.5124 380.441 76.7978 375.067 71.3686C369.721 65.9395 367.048 58.5852 367.048 49.3057C367.048 45.8432 367.477 42.5193 368.336 39.3338C369.222 36.1206 370.552 33.1567 372.325 30.4421C374.125 27.7276 376.286 25.3731 378.806 23.3787C381.327 21.3566 384.319 19.7777 387.781 18.642C391.271 17.5063 395.052 16.9385 399.124 16.9385C401.977 16.9385 404.567 17.1462 406.894 17.5617C409.249 17.9495 411.257 18.5174 412.919 19.2653C414.581 20.0132 415.813 20.6364 416.617 21.135C417.42 21.6059 418.306 22.2153 419.276 22.9632L415.038 30.359C411.077 27.4783 405.786 26.0379 399.166 26.0379C395.676 26.0379 392.546 26.6888 389.776 27.9907C387.006 29.2926 384.79 31.0377 383.128 33.226C381.466 35.4143 380.205 37.838 379.347 40.4972C378.488 43.1564 378.059 45.9402 378.059 48.8487C378.059 52.0342 378.488 54.9426 379.347 57.5741C380.205 60.2056 381.466 62.4908 383.128 64.4298C384.79 66.3411 386.922 67.8369 389.526 68.9172C392.158 69.9698 395.163 70.4961 398.543 70.4961C401.894 70.4961 405.343 69.9698 408.888 68.9172V54.6241H394.762V45.6078H419.608V74.9004C412.711 77.975 405.523 79.5124 398.044 79.5124Z" fill="black"/>
<path d="M326.953 97.0464L322.631 90.0661C326.482 88.5703 329.363 87.0191 331.274 85.4125C333.213 83.8336 334.515 81.9223 335.179 79.6786L335.761 77.6011L317.646 35.9268H328.365L340.706 66.5074L351.342 35.9268H361.854L344.57 80.8836C343.379 83.8198 341.814 86.4097 339.875 88.6534C337.936 90.9248 335.914 92.6975 333.808 93.9717C331.703 95.2459 329.418 96.2708 326.953 97.0464Z" fill="black"/>
<path d="M289.766 71.2022C291.65 71.2022 293.298 70.8283 294.711 70.0804C296.124 69.3048 297.232 68.2522 298.035 66.9226C298.866 65.5653 299.475 64.0834 299.863 62.4768C300.279 60.8702 300.486 59.1389 300.486 57.2831C300.486 53.1281 299.586 49.7487 297.786 47.1449C295.985 44.5134 293.284 43.1977 289.683 43.1977C287.273 43.1977 285.238 43.8486 283.576 45.1505C281.941 46.4524 280.764 48.1144 280.044 50.1365C279.351 52.1586 279.005 54.4854 279.005 57.1169C279.005 59.0281 279.199 60.8009 279.587 62.4352C280.002 64.0695 280.612 65.5653 281.415 66.9226C282.246 68.2522 283.368 69.3048 284.78 70.0804C286.221 70.8283 287.883 71.2022 289.766 71.2022ZM287.647 79.5122C282.135 79.5122 277.509 77.4901 273.77 73.4459C270.058 69.4017 268.202 64.0695 268.202 57.4493C268.202 54.43 268.631 51.5769 269.49 48.89C270.349 46.2031 271.582 43.8071 273.188 41.7019C274.822 39.5967 276.955 37.9347 279.587 36.7159C282.218 35.4694 285.168 34.8462 288.437 34.8462C291.373 34.8462 293.852 35.4556 295.874 36.6744C297.924 37.8655 299.351 39.112 300.154 40.4139V18.0186H310.375V67.1719C310.375 67.3381 310.5 71.133 310.749 78.5565H300.195L300.112 73.1135C299.863 73.7506 299.448 74.4015 298.866 75.0663C298.284 75.7311 297.509 76.4236 296.539 77.1438C295.57 77.8363 294.309 78.4042 292.758 78.8474C291.207 79.2906 289.503 79.5122 287.647 79.5122Z" fill="black"/>
<path d="M236.208 79.5124C231.056 79.5124 227.04 78.0443 224.159 75.1082C221.278 72.1443 219.838 68.0863 219.838 62.9341V35.9268H230.059V62.7679C230.059 65.5933 230.793 67.7123 232.261 69.125C233.729 70.51 235.751 71.2025 238.328 71.2025C241.402 71.2025 243.674 70.4407 245.142 68.9172C246.637 67.3661 247.385 64.8869 247.385 61.4798V35.9268H257.69V67.0891L258.188 78.5568H247.552L247.385 72.2412C247.247 72.8506 246.928 73.5293 246.43 74.2772C245.959 74.9974 245.294 75.773 244.435 76.6039C243.604 77.4349 242.455 78.1274 240.987 78.6814C239.546 79.2354 237.954 79.5124 236.208 79.5124Z" fill="black"/>
<path d="M211.694 78.5154H207.539C205.877 78.5154 204.437 78.4739 203.218 78.3908C201.999 78.3077 200.739 78.1276 199.437 77.8506C198.163 77.5736 197.069 77.2135 196.155 76.7703C195.268 76.2994 194.41 75.6762 193.579 74.9006C192.748 74.125 192.083 73.1971 191.584 72.1168C191.086 71.0088 190.684 69.693 190.379 68.1695C190.102 66.6461 189.964 64.901 189.964 62.9343V42.8242H181.072V35.9269H190.379V25.955L200.227 22.9219V35.9269H211.362V42.8242H200.227V63.5575C200.227 64.8871 200.324 65.9674 200.518 66.7984C200.739 67.6017 201.058 68.2803 201.473 68.8343C201.889 69.3606 202.581 69.7484 203.551 69.9977C204.548 70.247 205.628 70.4132 206.792 70.4963C207.955 70.5794 209.589 70.621 211.694 70.621V78.5154Z" fill="black"/>
<path d="M154.729 79.5124C150.574 79.5124 146.572 78.903 142.721 77.6842C138.871 76.4654 135.838 74.7757 133.622 72.6151L138.109 65.0531C140.076 66.5766 142.625 67.8646 145.755 68.9172C148.912 69.9698 151.682 70.4961 154.065 70.4961C157.804 70.4961 160.56 69.8036 162.333 68.4186C164.133 67.0336 165.034 64.9284 165.034 62.103C165.034 60.9951 164.951 60.1087 164.784 59.4439C164.618 58.7514 164.244 58.045 163.663 57.3248C163.081 56.5769 162.208 55.8983 161.045 55.2889C159.909 54.6518 158.372 53.987 156.433 53.2945C155.602 53.0175 154.189 52.5605 152.195 51.9234C150.228 51.2863 148.788 50.8015 147.874 50.4691C142.888 48.5855 139.273 46.3695 137.029 43.8212C134.785 41.2451 133.664 37.7687 133.664 33.3922C133.664 29.8466 134.592 26.8135 136.447 24.2928C138.331 21.7721 140.824 19.9162 143.926 18.7251C147.029 17.534 150.574 16.9385 154.563 16.9385C159.965 16.9385 164.161 17.4648 167.153 18.5174C170.144 19.57 172.97 21.3704 175.629 23.9188L170.227 30.8992C166.82 27.6583 162.097 26.0379 156.059 26.0379C152.763 26.0379 150.076 26.6057 147.998 27.7414C145.948 28.8771 144.924 30.6083 144.924 32.9351C144.924 34.0708 145.021 35.0126 145.214 35.7605C145.408 36.4807 145.81 37.2009 146.419 37.9211C147.056 38.6136 147.957 39.2645 149.12 39.8739C150.284 40.4556 151.835 41.0927 153.774 41.7852C154.466 42.0345 155.907 42.5193 158.095 43.2395C160.311 43.932 161.959 44.486 163.039 44.9015C167.97 46.8681 171.405 49.1257 173.344 51.6741C175.283 54.2224 176.252 57.768 176.252 62.3108C176.252 65.3301 175.657 67.9893 174.465 70.2883C173.274 72.5597 171.654 74.3464 169.604 75.6483C167.554 76.9502 165.283 77.9196 162.79 78.5567C160.297 79.1938 157.61 79.5124 154.729 79.5124Z" fill="black"/>
<path fill-rule="evenodd" clip-rule="evenodd" d="M52.2767 48.9761L1.58121 83.93L39.2928 109.169L52.2767 48.9761Z" fill="black"/>
<path fill-rule="evenodd" clip-rule="evenodd" d="M47.8318 95.9483C49.1146 95.9514 50.4039 95.9027 51.6969 95.8007C54.7734 95.5579 57.8714 95.0131 60.955 94.1461C64.0386 93.2792 66.9667 92.1298 69.719 90.7339C70.8758 90.1472 72.0015 89.5169 73.0948 88.8457C74.2008 88.1667 75.2736 87.4458 76.3115 86.6858C74.2267 83.2822 69.8415 81.9979 66.2198 83.8347C63.9146 85.0039 61.4571 85.9692 58.8613 86.699C56.2655 87.4288 53.665 87.8855 51.0883 88.0888C47.04 88.4084 43.9665 91.7897 43.9607 95.781C45.2426 95.8888 46.5339 95.9451 47.8318 95.9483ZM9.26244 76.3116C12.6661 74.2268 13.9504 69.8416 12.1135 66.2199C10.9444 63.9147 9.979 61.4572 9.24921 58.8614C8.51942 56.2657 8.06277 53.6651 7.8594 51.0884C7.53989 47.0401 4.15859 43.9666 0.167227 43.9609C0.0594285 45.2428 0.00315559 46.534 -3.03235e-05 47.8319C-0.00318325 49.1147 0.0455212 50.404 0.147577 51.6971C0.390386 54.7735 0.935191 57.8715 1.80213 60.9551C2.66907 64.0388 3.81844 66.9668 5.21436 69.7191C5.80107 70.8759 6.43134 72.0016 7.1025 73.0949C7.78154 74.2009 8.50245 75.2737 9.26244 76.3116ZM0.564578 40.6382C4.44683 41.5727 8.45777 39.3792 9.71971 35.518C11.3609 30.4963 13.9777 25.8327 17.4085 21.8151C20.0464 18.726 19.8284 14.1597 17.0078 11.3331C16.0188 12.17 15.067 13.0445 14.154 13.9538C13.2384 14.8657 12.3617 15.8126 11.5257 16.7916C7.4383 21.5781 4.32199 27.132 2.36666 33.1148C1.96672 34.3385 1.61536 35.5802 1.31419 36.8369C1.01388 38.09 0.763466 39.3581 0.564578 40.6382ZM19.6366 9.26257C21.7214 12.6662 26.1066 13.9505 29.7283 12.1137C32.0335 10.9445 34.491 9.97912 37.0868 9.24933C39.6826 8.51954 42.2831 8.06289 44.8598 7.85952C48.9081 7.54002 51.9816 4.15871 51.9874 0.167344C50.7055 0.0595438 49.4142 0.00327453 48.1163 8.77288e-05C46.8335 -0.00306227 45.5443 0.0456419 44.2512 0.147697C41.1747 0.390506 38.0767 0.93531 34.9931 1.80225C31.9095 2.66919 28.9815 3.81856 26.2292 5.21448C25.0724 5.80119 23.9466 6.43146 22.8534 7.10262C21.7473 7.78166 20.6745 8.50257 19.6366 9.26257ZM55.31 0.564699C54.3756 4.44695 56.569 8.45789 60.4302 9.71984C65.4519 11.361 70.1155 13.9778 74.1331 17.4086C77.2222 20.0465 81.7886 19.8285 84.6151 17.0079C83.7783 16.019 82.9038 15.0671 81.9944 14.1541C81.0825 13.2385 80.1356 12.3618 79.1566 11.5258C74.3701 7.43842 68.8162 4.32211 62.8334 2.36678C61.6097 1.96684 60.3681 1.61548 59.1114 1.31431C57.8583 1.01399 56.5902 0.763586 55.31 0.564699ZM86.6857 19.6367C83.2821 21.7215 81.9977 26.1068 83.8346 29.7284C85.0038 32.0336 85.9691 34.4911 86.6989 37.0869C87.4287 39.6827 87.8854 42.2832 88.0887 44.86C88.4082 48.9082 91.7895 51.9818 95.7809 51.9875C95.8887 50.7056 95.945 49.4143 95.9482 48.1165C95.9513 46.8337 95.9026 45.5444 95.8005 44.2513C95.5577 41.1748 95.0129 38.0768 94.146 34.9932C93.2791 31.9096 92.1297 28.9816 90.7338 26.2293C90.1471 25.0725 89.5168 23.9467 88.8456 22.8535C88.1666 21.7474 87.4457 20.6746 86.6857 19.6367ZM95.3835 55.3101C91.5013 54.3757 87.4904 56.5691 86.2284 60.4304C84.5872 65.452 81.9704 70.1157 78.5397 74.1332C75.9017 77.2224 76.1197 81.7887 78.9403 84.6152C79.9293 83.7784 80.8811 82.9039 81.7941 81.9946C82.7098 81.0826 83.5864 80.1358 84.4224 79.1567C88.5098 74.3702 91.6261 68.8164 93.5815 62.8335C93.9814 61.6098 94.3328 60.3682 94.6339 59.1115C94.9343 57.8584 95.1847 56.5903 95.3835 55.3101Z" fill="url(#paint0_linear_182_1641)"/>
</g>
<defs>
<linearGradient id="paint0_linear_182_1641" x1="35.6434" y1="1.61942" x2="61.6053" y2="93.9633" gradientUnits="userSpaceOnUse">
<stop stop-color="#1F90CC"/>
<stop offset="1" stop-color="#9013FE"/>
</linearGradient>
<clipPath id="clip0_182_1641">
<rect width="595.822" height="109.169" fill="white"/>
</clipPath>
</defs>
</svg>
